<?xml version="1.0" standalone="no"?>
<!DOCTYPE svg PUBLIC "-//W3C//DTD SVG 20010904//EN"
 "http://www.w3.org/TR/2001/REC-SVG-20010904/DTD/svg10.dtd">
<svg version="1.0" xmlns="http://www.w3.org/2000/svg"
 width="48.000000pt" height="48.000000pt" viewBox="0 0 48.000000 48.000000"
 preserveAspectRatio="xMidYMid meet">

<g transform="translate(0.000000,48.000000) scale(0.100000,-0.100000)" stroke="none">
<path d="M0 240 l0 -240 240 0 240 0 0 66 c0 65 -1 68 -45 115 l-45 48 0 -84
0 -85 -40 0 c-27 0 -43 5 -46 15 -5 13 -8 13 -27 0 -12 -8 -43 -15 -69 -15
-63 0 -107 36 -115 96 -11 81 40 131 143 141 30 3 54 9 54 14 0 21 -48 39
-103 39 l-58 0 3 38 c3 32 7 37 30 40 l28 3 -29 25 c-24 20 -40 24 -95 24
l-66 0 0 -240z"/>
<path d="M210 217 c-32 -16 -37 -48 -11 -72 17 -14 27 -16 53 -9 30 9 33 14
36 52 3 40 2 42 -25 42 -15 0 -39 -6 -53 -13z"/>
</g>
</svg>
