<?xml version="1.0" standalone="no"?>
<!DOCTYPE svg PUBLIC "-//W3C//DTD SVG 20010904//EN"
 "http://www.w3.org/TR/2001/REC-SVG-20010904/DTD/svg10.dtd">
<svg version="1.0" xmlns="http://www.w3.org/2000/svg"
 width="32.000000pt" height="32.000000pt" viewBox="0 0 32.000000 32.000000"
 preserveAspectRatio="xMidYMid meet">

<g transform="translate(0.000000,32.000000) scale(0.100000,-0.100000)" stroke="none">
<path d="M29 284 c-18 -22 -26 -248 -9 -269 18 -22 262 -22 280 0 17 21 9 247
-9 269 -11 13 -36 16 -131 16 -95 0 -120 -3 -131 -16z m138 -94 l33 -55 0 58
c0 44 3 57 15 57 12 0 15 -16 15 -85 0 -105 -13 -110 -64 -27 l-35 57 -1 -57
c0 -45 -3 -58 -15 -58 -12 0 -15 16 -15 86 0 75 2 85 17 82 9 -2 32 -28 50
-58z"/>
</g>
</svg>
