<?xml version="1.0" standalone="no"?>
<!DOCTYPE svg PUBLIC "-//W3C//DTD SVG 20010904//EN"
 "http://www.w3.org/TR/2001/REC-SVG-20010904/DTD/svg10.dtd">
<svg version="1.0" xmlns="http://www.w3.org/2000/svg"
 width="48.000000pt" height="48.000000pt" viewBox="0 0 48.000000 48.000000"
 preserveAspectRatio="xMidYMid meet">

<g transform="translate(0.000000,48.000000) scale(0.100000,-0.100000)" stroke="none">
<path d="M140 270 l0 -150 25 0 c23 0 25 4 25 45 0 40 2 45 23 45 16 0 34 -14
56 -45 27 -38 37 -45 67 -45 19 0 34 1 34 3 0 2 -18 27 -40 57 l-39 53 19 25
c31 38 27 97 -9 133 -27 26 -36 29 -95 29 l-66 0 0 -150z m129 68 c13 -33 -9
-63 -45 -63 -27 0 -29 3 -32 43 l-3 42 36 0 c28 0 38 -5 44 -22z"/>
<path d="M110 70 c30 -23 16 -23 170 -1 l125 19 -160 1 -160 1 25 -20z"/>
</g>
</svg>
