<svg width="512" height="512" xmlns="http://www.w3.org/2000/svg">
 <g>
  <title>background</title>
  <rect fill="none" id="canvas_background" height="514" width="514" y="-1" x="-1"/>
 </g>

 <g>
  <title>Layer 1</title>
  <path stroke="null" transform="rotate(76.83248138427734 281.2447814941406,261.0560607910156) " stroke-width="0" id="svg_3" d="m210.643297,16.713269c-6.817835,4.581504 -9.952372,12.563648 -7.980788,20.328492l30.17011,118.80628l-147.932686,70.270423c-5.472221,2.59868 -9.394619,7.310869 -10.750442,12.914172c-1.355806,5.60327 -0.011496,11.545829 3.684233,16.289051l98.196497,128.566246l-79.647258,92.380945c-5.315865,6.060978 -6.173811,14.574377 -2.184995,21.684601c3.988851,7.110207 12.066683,11.465813 20.572148,11.092657l279.420959,-12.272735c9.416429,-0.413393 17.259427,-6.512512 19.31841,-15.021834l74.8292,-309.253781c2.058719,-8.508339 -2.150614,-17.426387 -10.368527,-21.961774l-243.877065,-134.622835c-7.423476,-4.098445 -16.631236,-3.78431 -23.449794,0.800093zm232.364838,160.323654l-67.896267,280.601432l-214.536885,9.421741l60.971761,-69.496418c6.053106,-6.900522 214.51377,-96.05021 0.47485,-24.255278l-94.992827,-121.912305l140.658972,-66.816575c164.490752,117.285078 12.25102,-16.935352 10.007065,-25.772712l-21.933349,-85.132978l187.246696,103.363093l-0.000018,0z"/>
  <path d="m205.60188,456.97193c0,-1.16369 -1.7412,-3.38383 -2.32745,-8.14608c-0.42654,-3.46498 -0.67446,-5.9185 0,-8.14609c1.2159,-4.01582 5.53419,-10.09932 8.14609,-17.4559c3.58969,-10.11068 5.28492,-19.64817 6.98235,-29.09319c1.86398,-10.37178 1.2577,-16.27416 2.32746,-22.11078c1.27616,-6.9627 2.08289,-11.72857 3.49118,-15.12846c0.9958,-2.40409 2.0601,-4.68605 2.32746,-5.81864c0.59786,-2.53253 2.32744,-5.81862 3.49118,-11.63726l2.32744,-6.98237l2.32747,-5.81862l1.16373,-4.65491" id="svg_23" fill-opacity="null" stroke-opacity="null" stroke-width="null" fill="none" stroke="null"/>
  <path d="m411.58153,304.52372c0,-1.16373 0,-2.32746 0,-2.32746l0,-1.16371l-1.16373,0l-1.16368,-1.16373" id="svg_26" fill-opacity="null" stroke-opacity="null" stroke-width="null" fill="none" stroke="null"/>
 </g>
</svg>