<svg width="512" height="512" xmlns="http://www.w3.org/2000/svg">
 <g>
  <title>background</title>
  <rect x="-1" y="-1" width="514" height="514" id="canvas_background" fill="none"/>
 </g>

 <g>
  <title>Layer 1</title>
  <path stroke="null" transform="rotate(1.2218201160430908 135.37652587890616,225.4568176269528) " d="m95.18945,62.320105c-3.880792,3.058866 -5.665003,8.388182 -4.542753,13.572419l17.173139,79.321618l-84.204821,46.916406c-3.114848,1.735021 -5.347519,4.881138 -6.119261,8.62221c-0.771742,3.741063 -0.006549,7.708646 2.0971,10.875476l55.894462,85.83792l-45.336047,61.678603c-3.025843,4.046642 -3.514201,9.730658 -1.243715,14.477833c2.270493,4.747175 6.868475,7.655215 11.709876,7.406067l159.049316,-8.193947c5.359934,-0.276007 9.824254,-4.34812 10.996243,-10.029405l42.593558,-206.474871c1.171854,-5.680644 -1.22415,-11.634824 -5.901866,-14.662895l-138.81737,-89.881614c-4.225525,-2.736356 -9.46667,-2.526628 -13.347861,0.53418zm132.264484,107.040907l-38.647266,187.344978l-122.116633,6.290484l34.705764,-46.399643c3.44549,-4.607169 3.555398,-11.248504 0.270293,-16.194162l-54.07091,-81.395379l80.064556,-44.610429c4.864989,-2.709878 6.973413,-11.306972 5.696125,-17.207279l-12.484693,-56.83947l106.582765,69.010901z" id="svg_3" stroke-width="0"/>
  <text stroke="null" fill="#000000" stroke-width="0" stroke-opacity="null" fill-opacity="null" x="91.016969" y="227.334049" id="svg_19" font-size="250" font-family="Helvetica, Arial, sans-serif" text-anchor="start" xml:space="preserve" transform="matrix(2.08399478342758,0.03637626425479514,-0.03637626425479514,2.08399478342758,32.47260049940438,-19.00408544971711) " font-style="italic">L</text>
  <path stroke="null" fill="none" stroke-width="null" stroke-opacity="null" fill-opacity="null" id="svg_23" d="m205.601876,456.97193c0,-1.16369 -1.741199,-3.383825 -2.327442,-8.146084c-0.426544,-3.464978 -0.674463,-5.918494 0,-8.146084c1.215891,-4.015824 5.534185,-10.099319 8.146084,-17.455903c3.589691,-10.110684 5.28492,-19.648172 6.982348,-29.093187c1.86398,-10.371786 1.2577,-16.274161 2.327464,-22.110779c1.276163,-6.962706 2.082893,-11.72857 3.491178,-15.128461c0.995799,-2.404092 2.060101,-4.68605 2.327464,-5.818642c0.597858,-2.532532 2.327442,-5.818619 3.491178,-11.637261l2.327442,-6.98237l2.327464,-5.818619l1.163736,-4.654906"/>
  <path stroke="null" fill="none" stroke-width="null" stroke-opacity="null" fill-opacity="null" id="svg_26" d="m411.581535,304.523724c0,-1.163736 0,-2.327464 0,-2.327464l0,-1.163713l-1.163736,0l-1.163683,-1.163728"/>
 </g>
</svg>